<svg id="Layer_1" data-name="Layer 1" xmlns="http://www.w3.org/2000/svg" xmlns:xlink="http://www.w3.org/1999/xlink" viewBox="0 0 190 190"><defs><style>.cls-1{fill:none;}.cls-2{clip-path:url(#clip-path);}.cls-3{fill:#2b8abd;}.cls-4{fill:#fff;}</style><clipPath id="clip-path"><rect class="cls-1" width="190" height="190"/></clipPath></defs><title>SVG_Elements_ALL</title><g class="cls-2"><path class="cls-3" d="M162.18,162.18a95,95,0,1,0-134.35,0,95,95,0,0,0,134.35,0"/><path class="cls-4" d="M64.86,108.08a1.13,1.13,0,0,1-1.12,1.13,2.67,2.67,0,0,0-2.66,2.69v18.15H57.38V114.48a2.66,2.66,0,1,0-5.31,0v15.58H48.37V111.9a2.67,2.67,0,0,0-2.66-2.69,1.13,1.13,0,0,1-1.12-1.13V96.17a10.14,10.14,0,1,1,20.27,0v11.9ZM48.37,74a6.36,6.36,0,1,1,6.36,6.46A6.42,6.42,0,0,1,48.37,74m14.29,8.68A11.89,11.89,0,0,0,66.4,74a11.67,11.67,0,1,0-23.34,0,11.89,11.89,0,0,0,3.74,8.68,15.73,15.73,0,0,0-7.52,13.45v11.9A6.54,6.54,0,0,0,43.06,114v16.1a5.3,5.3,0,0,0,5.25,5.33H61.15a5.3,5.3,0,0,0,5.25-5.33V114a6.54,6.54,0,0,0,3.77-5.94V96.17a15.73,15.73,0,0,0-7.52-13.45"/><path class="cls-4" d="M145.26,108.08a1.13,1.13,0,0,1-1.12,1.13,2.67,2.67,0,0,0-2.65,2.69v18.15h-3.71V114.48a2.66,2.66,0,1,0-5.31,0v15.58h-3.71V111.9a2.67,2.67,0,0,0-2.66-2.69,1.13,1.13,0,0,1-1.12-1.13V96.17a10.13,10.13,0,1,1,20.27,0v11.9ZM128.77,74a6.36,6.36,0,1,1,6.36,6.46A6.42,6.42,0,0,1,128.77,74m14.29,8.68A11.89,11.89,0,0,0,146.8,74a11.67,11.67,0,1,0-19.6,8.68,15.72,15.72,0,0,0-7.52,13.45v11.9a6.54,6.54,0,0,0,3.77,5.94v16.1a5.3,5.3,0,0,0,5.25,5.33h12.84a5.3,5.3,0,0,0,5.25-5.33V114a6.54,6.54,0,0,0,3.77-5.94V96.17a15.73,15.73,0,0,0-7.52-13.45"/><path class="cls-4" d="M96.32,91.44V89.25a2.67,2.67,0,0,0-2.65-2.7H80.18V83.77H93.66a2.67,2.67,0,0,0,2.65-2.7V78.89L107,85.17Zm17.35-8.61L95,71.89a2.63,2.63,0,0,0-2.66,0A2.7,2.7,0,0,0,91,74.22v4.16H77.53a2.67,2.67,0,0,0-2.66,2.69v8.17a2.68,2.68,0,0,0,2.66,2.69H91v4.16a2.7,2.7,0,0,0,1.33,2.33,2.62,2.62,0,0,0,2.66,0L113.66,87.5a2.71,2.71,0,0,0,0-4.67"/><path class="cls-4" d="M109.68,113.87H96.2a2.68,2.68,0,0,0-2.66,2.69v2.19l-10.71-6.27,10.71-6.27v2.19a2.68,2.68,0,0,0,2.66,2.7h13.48v2.78Zm2.66-8.17H98.86v-4.16a2.7,2.7,0,0,0-1.33-2.33,2.62,2.62,0,0,0-2.66,0L76.2,110.14a2.71,2.71,0,0,0,0,4.67l18.67,10.94a2.62,2.62,0,0,0,2.66,0,2.7,2.7,0,0,0,1.33-2.33v-4.16h13.48a2.68,2.68,0,0,0,2.66-2.7v-8.17a2.68,2.68,0,0,0-2.66-2.69"/></g></svg>